<svg width="171" height="42" viewBox="0 0 171 42" fill="none" xmlns="http://www.w3.org/2000/svg">
<g clip-path="url(#clip0_230_3903)">
<path d="M37.8769 13.3418C36.0846 8.8422 30.9833 6.64879 26.4837 8.44112C25.8382 8.69806 25.2429 9.02394 24.6976 9.40622C23.3315 10.3588 21.7209 10.9165 20.0539 10.9165C19.2204 10.9165 18.3994 10.7787 17.6223 10.5217C16.839 10.2648 16.0932 9.8825 15.4164 9.40622C14.8712 9.02394 14.2695 8.69806 13.6241 8.44112C9.12443 6.64879 4.02318 8.8422 2.23086 13.3418C0.438528 17.8477 -2.27503 31.591 3.4905 33.8909C6.66154 35.1568 10.3527 32.1362 13.3295 28.4199C14.4074 27.0663 16.0556 26.3017 17.7853 26.3017H22.3225C24.0521 26.3017 25.7003 27.0663 26.7782 28.4199C29.7613 32.1362 33.4462 35.1568 36.6235 33.8909C42.389 31.591 39.6692 17.8477 37.8769 13.3418ZM13.5676 18.7752H11.2238V21.119C11.2238 21.7833 10.6849 22.3223 10.0206 22.3223C9.3563 22.3223 8.81735 21.7833 8.81735 21.119V18.7752H6.46727C5.80298 18.7752 5.26403 18.2363 5.26403 17.572C5.26403 16.9077 5.80298 16.3687 6.46727 16.3687H8.81735V14.0186C8.81735 13.3544 9.3563 12.8154 10.0206 12.8154C10.6849 12.8154 11.2238 13.3544 11.2238 14.0186V16.3687H13.5676C14.2319 16.3687 14.7709 16.9077 14.7709 17.572C14.7709 18.2363 14.2319 18.7752 13.5676 18.7752ZM29.6547 12.3893C30.6261 12.3893 31.4095 13.1726 31.4095 14.144C31.4095 15.1091 30.6261 15.8924 29.6547 15.8924C28.6896 15.8924 27.9063 15.1091 27.9063 14.144C27.9063 13.1726 28.6896 12.3893 29.6547 12.3893ZM26.2268 19.3267C25.2617 19.3267 24.472 18.5433 24.472 17.572C24.472 16.6069 25.2617 15.8235 26.2268 15.8235C27.1919 15.8235 27.9815 16.6069 27.9815 17.572C27.9815 18.5433 27.1919 19.3267 26.2268 19.3267ZM29.6547 22.7547C28.6896 22.7547 27.9063 21.9651 27.9063 21.0062C27.9063 20.0286 28.6896 19.2452 29.6547 19.2452C30.6261 19.2452 31.4095 20.0286 31.4095 21.0062C31.4095 21.9651 30.6261 22.7547 29.6547 22.7547ZM33.089 19.3267C32.1176 19.3267 31.3343 18.5433 31.3343 17.572C31.3343 16.6069 32.1176 15.8235 33.089 15.8235C34.0541 15.8235 34.8375 16.6069 34.8375 17.572C34.8375 18.5433 34.0541 19.3267 33.089 19.3267Z" fill="url(#paint0_linear_230_3903)"/>
</g>
<path d="M68.8914 30.0498C68.8914 30.7857 68.7837 31.4408 68.5683 32.0151C68.3529 32.5895 67.976 33.0741 67.4375 33.469C66.917 33.8639 66.2081 34.16 65.3106 34.3574C64.4132 34.5549 63.2824 34.6536 61.9183 34.6536C60.7517 34.6536 59.7824 34.5728 59.0106 34.4113C58.2389 34.2677 57.6107 34.0523 57.126 33.7651C56.6594 33.4959 56.3273 33.1549 56.1299 32.7421C55.9325 32.3292 55.8337 31.8626 55.8337 31.3421C55.8337 30.66 56.0401 30.1126 56.453 29.6998C56.8658 29.3049 57.4671 29.0446 58.2568 28.919V28.3536C57.5748 28.228 57.0812 27.9498 56.776 27.519C56.4709 27.0882 56.3183 26.5677 56.3183 25.9575C56.3183 25.6344 56.3812 25.3472 56.5068 25.0959C56.6504 24.8447 56.8299 24.6293 57.0453 24.4498C57.2786 24.2703 57.5389 24.1177 57.826 23.9921C58.1132 23.8665 58.4094 23.7677 58.7145 23.6959V23.319C57.9248 22.9421 57.3504 22.4126 56.9914 21.7306C56.6324 21.0485 56.453 20.2229 56.453 19.2537C56.453 17.7639 56.8837 16.5973 57.7453 15.7537C58.6068 14.9101 60.0158 14.4883 61.9722 14.4883C62.3491 14.4883 62.717 14.5242 63.076 14.596C63.4529 14.6498 63.8029 14.7306 64.126 14.8383V14.3267C64.126 13.6088 64.2965 13.0793 64.6375 12.7383C64.9786 12.3973 65.4632 12.2268 66.0914 12.2268H68.1106V15.0537H65.2568V15.4844C65.9927 15.7896 66.5491 16.2652 66.926 16.9114C67.3209 17.5575 67.5183 18.3383 67.5183 19.2537C67.5183 20.7254 67.0875 21.8831 66.226 22.7267C65.3645 23.5524 63.9465 23.9652 61.9722 23.9652C61.5235 23.9652 61.1017 23.9472 60.7068 23.9113C60.3299 23.8575 59.9619 23.7857 59.603 23.6959C59.3158 23.9472 59.1722 24.3511 59.1722 24.9075C59.1722 25.2664 59.2799 25.5357 59.4953 25.7152C59.7286 25.8947 60.1145 25.9844 60.6529 25.9844H64.4491C66.0465 25.9844 67.1863 26.3434 67.8683 27.0613C68.5504 27.7613 68.8914 28.7575 68.8914 30.0498ZM65.3645 30.5344C65.3645 30.1036 65.2119 29.7716 64.9068 29.5382C64.6196 29.3049 64.135 29.1882 63.4529 29.1882H59.0645C58.9389 29.3677 58.8401 29.5741 58.7683 29.8075C58.7145 30.0408 58.6876 30.2831 58.6876 30.5344C58.6876 31.0549 58.8671 31.4498 59.226 31.719C59.603 31.9882 60.285 32.1228 61.2722 32.1228H62.7799C63.767 32.1228 64.4401 31.9882 64.7991 31.719C65.176 31.4498 65.3645 31.0549 65.3645 30.5344ZM61.9722 21.4613C62.7081 21.4613 63.2286 21.2908 63.5337 20.9498C63.8568 20.6088 64.0183 20.1062 64.0183 19.4421V19.0113C64.0183 18.3472 63.8568 17.8447 63.5337 17.5037C63.2286 17.1626 62.7081 16.9921 61.9722 16.9921C61.2363 16.9921 60.7068 17.1626 60.3837 17.5037C60.0786 17.8447 59.926 18.3472 59.926 19.0113V19.4421C59.926 20.1062 60.0786 20.6088 60.3837 20.9498C60.7068 21.2908 61.2363 21.4613 61.9722 21.4613ZM79.742 28.9459C78.2702 28.9459 77.4715 28.1293 77.3458 26.4959H76.9958C76.8522 27.3575 76.4663 28.0395 75.8381 28.5421C75.2099 29.0267 74.4112 29.269 73.442 29.269C72.1676 29.269 71.2074 28.91 70.5612 28.1921C69.9151 27.4562 69.592 26.4421 69.592 25.1498C69.592 23.6062 70.0587 22.4844 70.992 21.7844C71.9433 21.0844 73.2625 20.7344 74.9497 20.7344H76.9958V19.6306C76.9958 18.8947 76.8433 18.3472 76.5381 17.9883C76.233 17.6293 75.7215 17.4498 75.0035 17.4498C74.3753 17.4498 73.8458 17.6114 73.4151 17.9344C73.0022 18.2396 72.6343 18.6524 72.3112 19.1729L70.0766 17.1806C70.651 16.337 71.351 15.6819 72.1766 15.2152C73.0022 14.7306 74.0612 14.4883 75.3535 14.4883C77.2022 14.4883 78.5663 14.9191 79.4458 15.7806C80.3253 16.6421 80.765 17.9255 80.765 19.6306V26.0113H81.9227V28.9459H79.742ZM74.9497 26.6305C75.5061 26.6305 75.9817 26.478 76.3766 26.1729C76.7894 25.8498 76.9958 25.3562 76.9958 24.6921V22.9421H75.2997C74.0074 22.9421 73.3612 23.4806 73.3612 24.5575V25.069C73.3612 25.6075 73.4958 26.0023 73.7651 26.2536C74.0522 26.5049 74.4471 26.6305 74.9497 26.6305ZM84.3088 28.9459V14.8114H88.078V17.2075H88.5088C88.6165 16.8306 88.76 16.4806 88.9395 16.1575C89.137 15.8344 89.3613 15.5473 89.6126 15.296C89.8818 15.0447 90.1959 14.8473 90.5549 14.7037C90.9139 14.5601 91.3267 14.4883 91.7934 14.4883C92.7087 14.4883 93.4357 14.7396 93.9741 15.2421C94.5126 15.7267 94.9075 16.4267 95.1587 17.3421H95.5087C95.8139 16.3549 96.2895 15.637 96.9356 15.1883C97.5997 14.7216 98.3626 14.4883 99.2241 14.4883C100.427 14.4883 101.342 14.9191 101.97 15.7806C102.616 16.6421 102.939 17.8267 102.939 19.3344V28.9459H99.1703V20.0613C99.1703 18.3921 98.6228 17.5575 97.528 17.5575C96.9715 17.5575 96.4959 17.737 96.101 18.096C95.7062 18.437 95.5087 18.9216 95.5087 19.5498V28.9459H91.7395V20.0613C91.7395 18.3921 91.1921 17.5575 90.0972 17.5575C89.5408 17.5575 89.0652 17.737 88.6703 18.096C88.2754 18.437 88.078 18.9216 88.078 19.5498V28.9459H84.3088ZM111.625 29.269C109.687 29.269 108.134 28.6587 106.968 27.4382C105.819 26.1998 105.245 24.3511 105.245 21.8921C105.245 19.3793 105.747 17.5216 106.752 16.319C107.775 15.0985 109.274 14.4883 111.248 14.4883C113.223 14.4883 114.712 15.0985 115.718 16.319C116.741 17.5216 117.252 19.3793 117.252 21.8921V22.8075H109.175V23.6959C109.175 24.4857 109.418 25.1229 109.902 25.6075C110.387 26.0741 111.051 26.3075 111.895 26.3075C112.595 26.3075 113.187 26.1549 113.671 25.8498C114.174 25.5267 114.632 25.087 115.045 24.5306L116.956 26.7652C116.382 27.537 115.646 28.1472 114.748 28.5959C113.869 29.0446 112.828 29.269 111.625 29.269ZM111.248 17.3152C109.866 17.3152 109.175 18.1229 109.175 19.7383V20.5998H113.321V19.7383C113.321 18.1229 112.63 17.3152 111.248 17.3152Z" fill="#F8FAFC"/>
<path d="M118.889 28.9459V27.3844L125.97 16.8575H119.105V15.0537H128.393V16.6152L121.313 27.1421H128.609V28.9459H118.889ZM136.014 29.269C135.206 29.269 134.453 29.1344 133.753 28.8652C133.053 28.5959 132.451 28.1652 131.949 27.5729C131.446 26.9805 131.051 26.2267 130.764 25.3113C130.477 24.3959 130.333 23.2921 130.333 21.9998C130.333 20.7075 130.477 19.6037 130.764 18.6883C131.051 17.7729 131.446 17.019 131.949 16.4267C132.451 15.8344 133.053 15.4037 133.753 15.1344C134.453 14.8652 135.206 14.7306 136.014 14.7306C136.822 14.7306 137.576 14.8652 138.276 15.1344C138.976 15.4037 139.577 15.8344 140.079 16.4267C140.582 17.019 140.977 17.7729 141.264 18.6883C141.551 19.6037 141.695 20.7075 141.695 21.9998C141.695 23.2921 141.551 24.3959 141.264 25.3113C140.977 26.2267 140.582 26.9805 140.079 27.5729C139.577 28.1652 138.976 28.5959 138.276 28.8652C137.576 29.1344 136.822 29.269 136.014 29.269ZM136.014 27.4382C137.127 27.4382 137.98 27.1062 138.572 26.4421C139.182 25.778 139.487 24.7639 139.487 23.3998V20.5998C139.487 19.2357 139.182 18.2216 138.572 17.5575C137.98 16.8934 137.127 16.5614 136.014 16.5614C134.901 16.5614 134.04 16.8934 133.43 17.5575C132.837 18.2216 132.541 19.2357 132.541 20.5998V23.3998C132.541 24.7639 132.837 25.778 133.43 26.4421C134.04 27.1062 134.901 27.4382 136.014 27.4382ZM144.842 28.9459V15.0537H146.888V17.3152H147.158C147.427 16.4537 147.84 15.8075 148.396 15.3767C148.971 14.946 149.742 14.7306 150.712 14.7306C151.95 14.7306 152.919 15.1524 153.619 15.996C154.337 16.8396 154.696 18.1408 154.696 19.8998V28.9459H152.65V20.0344C152.65 18.9216 152.417 18.069 151.95 17.4767C151.501 16.8844 150.801 16.5883 149.85 16.5883C149.024 16.5883 148.324 16.8396 147.75 17.3421C147.176 17.8447 146.888 18.5537 146.888 19.469V28.9459H144.842ZM163.384 29.269C162.576 29.269 161.823 29.1344 161.123 28.8652C160.423 28.5959 159.821 28.1652 159.319 27.5729C158.816 26.9805 158.421 26.2267 158.134 25.3113C157.847 24.3959 157.703 23.2921 157.703 21.9998C157.703 20.7075 157.847 19.6037 158.134 18.6883C158.421 17.7729 158.816 17.019 159.319 16.4267C159.821 15.8344 160.423 15.4037 161.123 15.1344C161.823 14.8652 162.576 14.7306 163.384 14.7306C164.192 14.7306 164.928 14.8652 165.592 15.1344C166.274 15.4037 166.848 15.8344 167.315 16.4267C167.781 17.019 168.14 17.7729 168.392 18.6883C168.661 19.6037 168.796 20.7075 168.796 21.9998V22.5113H159.884V23.3998C159.884 24.7639 160.189 25.787 160.799 26.469C161.428 27.1331 162.289 27.4652 163.384 27.4652C164.317 27.4652 165.08 27.2677 165.673 26.8729C166.265 26.46 166.731 25.8498 167.073 25.0421L168.473 26.0652C168.042 27.0164 167.405 27.7882 166.561 28.3805C165.735 28.9728 164.676 29.269 163.384 29.269ZM163.384 16.4537C162.271 16.4537 161.41 16.8037 160.799 17.5037C160.189 18.2037 159.884 19.2357 159.884 20.5998V20.9498H166.615V20.5998C166.615 17.8357 165.538 16.4537 163.384 16.4537Z" fill="#2563EB"/>
<defs>
<linearGradient id="paint0_linear_230_3903" x1="3.83714" y1="34.1839" x2="37.3509" y2="34.1839" gradientUnits="userSpaceOnUse">
<stop stop-color="#4F46E5"/>
<stop offset="1" stop-color="#3730A3"/>
</linearGradient>
<clipPath id="clip0_230_3903">
<rect width="40.1081" height="40.1081" fill="white" transform="translate(0 0.945923)"/>
</clipPath>
</defs>
</svg>
