<svg width="116" height="24" viewBox="0 0 116 24" fill="none" xmlns="http://www.w3.org/2000/svg">
<path d="M13.8468 19.1287C13.8468 19.8811 13.7366 20.551 13.5164 21.1382C13.2962 21.7255 12.9108 22.221 12.3602 22.6248C11.828 23.0285 11.1031 23.3313 10.1855 23.5332C9.26788 23.7351 8.11169 23.836 6.71692 23.836C5.52402 23.836 4.533 23.7534 3.74385 23.5883C2.95471 23.4414 2.31238 23.2212 1.81687 22.9276C1.33971 22.6523 1.0002 22.3036 0.798322 21.8815C0.596447 21.4594 0.49551 20.9822 0.49551 20.45C0.49551 19.7526 0.706561 19.1929 1.12866 18.7708C1.55076 18.367 2.16556 18.1009 2.97306 17.9725V17.3944C2.27568 17.2659 1.77099 16.9815 1.459 16.541C1.14701 16.1005 0.99102 15.5683 0.99102 14.9444C0.99102 14.614 1.05525 14.3204 1.18372 14.0634C1.33054 13.8065 1.51406 13.5863 1.73429 13.4028C1.97286 13.2192 2.23897 13.0633 2.53261 12.9348C2.82624 12.8063 3.12906 12.7054 3.44104 12.632V12.2466C2.63354 11.8612 2.04627 11.3198 1.67923 10.6224C1.31218 9.92502 1.12866 9.08082 1.12866 8.0898C1.12866 6.56656 1.56912 5.37367 2.45002 4.51111C3.33093 3.64856 4.77158 3.21728 6.77197 3.21728C7.15737 3.21728 7.53359 3.25398 7.90063 3.32739C8.28603 3.38245 8.6439 3.46503 8.97424 3.57515V3.05211C8.97424 2.31802 9.14859 1.77663 9.49728 1.42794C9.84597 1.07924 10.3415 0.904897 10.9838 0.904897H13.0484V3.79537H10.1304V4.23583C10.8829 4.54782 11.4518 5.03415 11.8372 5.69483C12.2409 6.35551 12.4428 7.15383 12.4428 8.0898C12.4428 9.59468 12.0024 10.7784 11.1215 11.641C10.2405 12.4852 8.79072 12.9073 6.77197 12.9073C6.31317 12.9073 5.88189 12.8889 5.47814 12.8522C5.09274 12.7971 4.71652 12.7237 4.34948 12.632C4.05584 12.8889 3.90902 13.3018 3.90902 13.8707C3.90902 14.2378 4.01914 14.5131 4.23937 14.6966C4.47794 14.8801 4.87252 14.9719 5.42308 14.9719H9.30458C10.9379 14.9719 12.1033 15.3389 12.8007 16.073C13.4981 16.7888 13.8468 17.8073 13.8468 19.1287ZM10.2405 19.6242C10.2405 19.1837 10.0846 18.8442 9.77256 18.6056C9.47893 18.367 8.98342 18.2478 8.28603 18.2478H3.79891C3.67045 18.4313 3.56951 18.6423 3.4961 18.8809C3.44104 19.1195 3.41351 19.3672 3.41351 19.6242C3.41351 20.1564 3.59704 20.5601 3.96408 20.8354C4.34948 21.1107 5.04686 21.2483 6.05624 21.2483H7.59782C8.6072 21.2483 9.2954 21.1107 9.66245 20.8354C10.0478 20.5601 10.2405 20.1564 10.2405 19.6242ZM6.77197 10.3471C7.52441 10.3471 8.05663 10.1728 8.36862 9.82408C8.69896 9.47539 8.86413 8.96153 8.86413 8.28249V7.84204C8.86413 7.16301 8.69896 6.64915 8.36862 6.30045C8.05663 5.95176 7.52441 5.77741 6.77197 5.77741C6.01953 5.77741 5.47814 5.95176 5.1478 6.30045C4.83581 6.64915 4.67982 7.16301 4.67982 7.84204V8.28249C4.67982 8.96153 4.83581 9.47539 5.1478 9.82408C5.47814 10.1728 6.01953 10.3471 6.77197 10.3471ZM24.9413 18C23.4364 18 22.6198 17.165 22.4913 15.4949H22.1334C21.9866 16.3758 21.592 17.0732 20.9497 17.5871C20.3074 18.0826 19.4907 18.3303 18.4997 18.3303C17.1967 18.3303 16.2148 17.9633 15.5542 17.2292C14.8935 16.4768 14.5631 15.4399 14.5631 14.1185C14.5631 12.5402 15.0403 11.3932 15.9946 10.6775C16.9673 9.96172 18.3162 9.60386 20.0413 9.60386H22.1334V8.47519C22.1334 7.72275 21.9774 7.16301 21.6655 6.79596C21.3535 6.42892 20.8304 6.2454 20.0963 6.2454C19.454 6.2454 18.9126 6.41057 18.4722 6.74091C18.0501 7.0529 17.6738 7.475 17.3435 8.00721L15.0586 5.97011C15.6459 5.10756 16.3617 4.4377 17.2059 3.96054C18.0501 3.46503 19.1328 3.21728 20.4542 3.21728C22.3445 3.21728 23.7393 3.65773 24.6385 4.53864C25.5378 5.41955 25.9874 6.73173 25.9874 8.47519V14.9994H27.1711V18H24.9413ZM20.0413 15.6326C20.6102 15.6326 21.0965 15.4766 21.5003 15.1646C21.9224 14.8342 22.1334 14.3296 22.1334 13.6505V11.8612H20.3991C19.0778 11.8612 18.4171 12.4117 18.4171 13.5129V14.0359C18.4171 14.5865 18.5547 14.9902 18.83 15.2472C19.1237 15.5041 19.5274 15.6326 20.0413 15.6326ZM29.6108 18V3.54762H33.4648V5.99764H33.9052C34.0154 5.61225 34.1622 5.25438 34.3457 4.92404C34.5476 4.5937 34.777 4.30006 35.0339 4.04313C35.3092 3.7862 35.6304 3.58432 35.9974 3.43751C36.3644 3.29069 36.7865 3.21728 37.2637 3.21728C38.1997 3.21728 38.9429 3.47421 39.4935 3.98807C40.0441 4.48358 40.4478 5.19932 40.7047 6.13528H41.0626C41.3746 5.12591 41.8609 4.39182 42.5216 3.93302C43.2006 3.45586 43.9806 3.21728 44.8615 3.21728C46.0911 3.21728 47.0271 3.65773 47.6694 4.53864C48.3301 5.41955 48.6604 6.63079 48.6604 8.17238V18H44.8065V8.91565C44.8065 7.20889 44.2467 6.35551 43.1272 6.35551C42.5583 6.35551 42.072 6.53903 41.6682 6.90608C41.2645 7.25477 41.0626 7.75028 41.0626 8.39261V18H37.2086V8.91565C37.2086 7.20889 36.6489 6.35551 35.5294 6.35551C34.9605 6.35551 34.4742 6.53903 34.0704 6.90608C33.6667 7.25477 33.4648 7.75028 33.4648 8.39261V18H29.6108ZM57.5415 18.3303C55.5595 18.3303 53.972 17.7064 52.7791 16.4584C51.6046 15.1921 51.0173 13.3018 51.0173 10.7876C51.0173 8.21826 51.5312 6.31881 52.5589 5.08921C53.605 3.84126 55.1374 3.21728 57.1562 3.21728C59.1749 3.21728 60.6981 3.84126 61.7259 5.08921C62.7719 6.31881 63.295 8.21826 63.295 10.7876V11.7235H55.0365V12.632C55.0365 13.4395 55.2842 14.091 55.7797 14.5865C56.2752 15.0636 56.9543 15.3022 57.8168 15.3022C58.5326 15.3022 59.1382 15.1462 59.6337 14.8342C60.1476 14.5039 60.6155 14.0543 61.0376 13.4854L62.9922 15.7702C62.4049 16.5593 61.6524 17.1833 60.7348 17.6421C59.8356 18.1009 58.7711 18.3303 57.5415 18.3303ZM57.1562 6.10776C55.743 6.10776 55.0365 6.93361 55.0365 8.58531V9.46621H59.2758V8.58531C59.2758 6.93361 58.5693 6.10776 57.1562 6.10776Z" fill="#F8FAFC"/>
<path d="M64.969 18V16.4034L72.209 5.63977H65.1893V3.79537H74.6865V5.39202L67.4466 16.1556H74.9068V18H64.969ZM82.4788 18.3303C81.6529 18.3303 80.8821 18.1927 80.1664 17.9174C79.4507 17.6421 78.8359 17.2017 78.322 16.5961C77.8081 15.9904 77.4044 15.2196 77.1108 14.2837C76.8171 13.3477 76.6703 12.219 76.6703 10.8977C76.6703 9.57633 76.8171 8.44766 77.1108 7.5117C77.4044 6.57574 77.8081 5.80494 78.322 5.19932C78.8359 4.5937 79.4507 4.15324 80.1664 3.87796C80.8821 3.60268 81.6529 3.46503 82.4788 3.46503C83.3046 3.46503 84.0754 3.60268 84.7912 3.87796C85.5069 4.15324 86.1217 4.5937 86.6356 5.19932C87.1494 5.80494 87.5532 6.57574 87.8468 7.5117C88.1404 8.44766 88.2873 9.57633 88.2873 10.8977C88.2873 12.219 88.1404 13.3477 87.8468 14.2837C87.5532 15.2196 87.1494 15.9904 86.6356 16.5961C86.1217 17.2017 85.5069 17.6421 84.7912 17.9174C84.0754 18.1927 83.3046 18.3303 82.4788 18.3303ZM82.4788 16.4584C83.6166 16.4584 84.4884 16.1189 85.094 15.4399C85.718 14.7608 86.0299 13.7239 86.0299 12.3292V9.46621C86.0299 8.07144 85.718 7.03454 85.094 6.35551C84.4884 5.67648 83.6166 5.33696 82.4788 5.33696C81.3409 5.33696 80.46 5.67648 79.8361 6.35551C79.2304 7.03454 78.9276 8.07144 78.9276 9.46621V12.3292C78.9276 13.7239 79.2304 14.7608 79.8361 15.4399C80.46 16.1189 81.3409 16.4584 82.4788 16.4584ZM91.5055 18V3.79537H93.5977V6.10776H93.8729C94.1482 5.22685 94.5703 4.56617 95.1392 4.12571C95.7265 3.68526 96.5157 3.46503 97.5067 3.46503C98.773 3.46503 99.764 3.89631 100.48 4.75887C101.214 5.62142 101.581 6.95196 101.581 8.75048V18H99.4887V8.88812C99.4887 7.75028 99.2501 6.87855 98.773 6.27293C98.3142 5.6673 97.5984 5.36449 96.6258 5.36449C95.7816 5.36449 95.0658 5.62142 94.4786 6.13528C93.8913 6.64915 93.5977 7.37406 93.5977 8.31002V18H91.5055ZM110.464 18.3303C109.638 18.3303 108.867 18.1927 108.152 17.9174C107.436 17.6421 106.821 17.2017 106.307 16.5961C105.794 15.9904 105.39 15.2196 105.096 14.2837C104.802 13.3477 104.656 12.219 104.656 10.8977C104.656 9.57633 104.802 8.44766 105.096 7.5117C105.39 6.57574 105.794 5.80494 106.307 5.19932C106.821 4.5937 107.436 4.15324 108.152 3.87796C108.867 3.60268 109.638 3.46503 110.464 3.46503C111.29 3.46503 112.042 3.60268 112.721 3.87796C113.419 4.15324 114.006 4.5937 114.483 5.19932C114.96 5.80494 115.327 6.57574 115.584 7.5117C115.86 8.44766 115.997 9.57633 115.997 10.8977V11.4207H106.885V12.3292C106.885 13.7239 107.197 14.77 107.821 15.4674C108.464 16.1464 109.345 16.4859 110.464 16.4859C111.418 16.4859 112.198 16.2841 112.804 15.8803C113.41 15.4582 113.887 14.8342 114.236 14.0084L115.667 15.0545C115.227 16.0271 114.575 16.8163 113.712 17.4219C112.868 18.0275 111.786 18.3303 110.464 18.3303ZM110.464 5.22685C109.326 5.22685 108.445 5.58472 107.821 6.30045C107.197 7.01619 106.885 8.07144 106.885 9.46621V9.82408H113.768V9.46621C113.768 6.63997 112.666 5.22685 110.464 5.22685Z" fill="#4F46E5"/>
</svg>
