<svg width="41" height="27" viewBox="0 0 41 27" fill="none" xmlns="http://www.w3.org/2000/svg">
<path d="M38.7286 5.67469C36.896 1.07389 31.68 -1.16884 27.0792 0.663794C26.4192 0.926513 25.8105 1.25972 25.253 1.65059C23.8561 2.62458 22.2093 3.19487 20.5048 3.19487C19.6526 3.19487 18.8132 3.0539 18.0186 2.79118C17.2176 2.52846 16.4551 2.13759 15.7631 1.65059C15.2056 1.25972 14.5904 0.926513 13.9304 0.663794C9.32963 -1.16884 4.11368 1.07389 2.28105 5.67469C0.448422 10.2819 -2.32615 24.3342 3.56902 26.6859C6.81136 27.9802 10.5856 24.8917 13.6293 21.0919C14.7314 19.7078 16.4167 18.926 18.1852 18.926H22.8244C24.593 18.926 26.2783 19.7078 27.3804 21.0919C30.4305 24.8917 34.1983 27.9802 37.447 26.6859C43.3422 24.3342 40.5612 10.2819 38.7286 5.67469ZM13.8728 11.2303H11.4762V13.6268C11.4762 14.306 10.9252 14.8571 10.2459 14.8571C9.56672 14.8571 9.01565 14.306 9.01565 13.6268V11.2303H6.61272C5.9335 11.2303 5.38242 10.6792 5.38242 9.99995C5.38242 9.32073 5.9335 8.76966 6.61272 8.76966H9.01565V6.36673C9.01565 5.68751 9.56672 5.13644 10.2459 5.13644C10.9252 5.13644 11.4762 5.68751 11.4762 6.36673V8.76966H13.8728C14.552 8.76966 15.1031 9.32073 15.1031 9.99995C15.1031 10.6792 14.552 11.2303 13.8728 11.2303ZM30.3216 4.70071C31.3148 4.70071 32.1158 5.50168 32.1158 6.49489C32.1158 7.48169 31.3148 8.28266 30.3216 8.28266C29.3348 8.28266 28.5338 7.48169 28.5338 6.49489C28.5338 5.50168 29.3348 4.70071 30.3216 4.70071ZM26.8165 11.7941C25.8297 11.7941 25.0223 10.9932 25.0223 9.99995C25.0223 9.01315 25.8297 8.21218 26.8165 8.21218C27.8033 8.21218 28.6107 9.01315 28.6107 9.99995C28.6107 10.9932 27.8033 11.7941 26.8165 11.7941ZM30.3216 15.2992C29.3348 15.2992 28.5338 14.4918 28.5338 13.5114C28.5338 12.5118 29.3348 11.7108 30.3216 11.7108C31.3148 11.7108 32.1158 12.5118 32.1158 13.5114C32.1158 14.4918 31.3148 15.2992 30.3216 15.2992ZM33.833 11.7941C32.8398 11.7941 32.0389 10.9932 32.0389 9.99995C32.0389 9.01315 32.8398 8.21218 33.833 8.21218C34.8198 8.21218 35.6208 9.01315 35.6208 9.99995C35.6208 10.9932 34.8198 11.7941 33.833 11.7941Z" fill="url(#paint0_linear_248_128)"/>
<defs>
<linearGradient id="paint0_linear_248_128" x1="3.92345" y1="26.9854" x2="38.1908" y2="26.9854" gradientUnits="userSpaceOnUse">
<stop stop-color="#4F46E5"/>
<stop offset="1" stop-color="#3730A3"/>
</linearGradient>
</defs>
</svg>
