<svg width="23" height="22" viewBox="0 0 23 22" fill="none" xmlns="http://www.w3.org/2000/svg">
<path d="M19.8238 9.70153C20.9778 9.71131 21.3544 9.38368 21.4962 9.16852C22.0341 8.46924 21.193 7.12448 19.2223 6.10246C19.9852 4.6599 20.5182 3.36403 20.7822 2.43493C20.9289 1.92636 20.8311 1.61829 20.8018 1.5645C20.7285 2.01438 20.1221 3.64766 18.7284 5.86285C17.6526 5.37873 16.2981 4.99731 14.699 4.84083C14.3127 4.11221 13.1978 2.09751 12.0975 1.01681C11.3738 0.307756 10.7968 0.0436939 10.342 0.00946355C9.74541 -0.0589971 9.36888 0.258856 9.16349 0.483798C8.4251 1.28088 8.11702 2.58652 8.08768 4.09754C7.77472 3.56453 7.34929 3.04129 6.86517 2.98261H6.85539C5.9654 2.83102 5.20745 4.23935 5.31014 6.4741C3.66219 6.53278 2.25875 6.7235 1.31497 6.95822C0.889537 7.0658 0.615695 7.27118 0.552124 7.37387C0.596134 7.3592 1.51546 6.97778 5.34926 6.97778C5.5742 9.25654 6.62556 11.3544 6.46908 10.9827C6.04854 11.6429 4.82602 13.6625 4.43482 15.1833C4.18054 16.1662 4.249 16.8019 4.43971 17.2078C4.67932 17.7554 5.14388 17.9266 5.43728 17.9902C6.51309 18.2347 7.81873 17.8337 9.16349 17.0806C8.84075 17.6332 8.56691 18.308 8.77229 18.7726C9.08525 19.6185 10.6843 19.5745 12.5719 18.3667C13.4374 19.7506 14.2932 20.8557 14.968 21.5501C15.0804 21.6675 15.2027 21.7702 15.3445 21.8533C15.5646 21.9902 15.7113 22 15.7113 22C15.3592 21.7115 14.2491 20.3667 13.0217 18.0537C13.9753 17.3642 14.9826 16.3813 15.9215 15.0757C21.1979 15.2713 22.0781 14.0097 22.2835 13.7163C22.9192 12.8752 22.4351 11.2615 19.8238 9.70153ZM16.479 14.2688C17.501 12.6502 17.7846 11.3544 17.7455 10.2981C18.9436 11.0512 19.7749 11.9118 19.8531 12.8263C19.902 13.3837 19.5059 14.0781 16.479 14.2688ZM9.86277 16.665C10.2833 16.396 10.7039 16.1026 11.1195 15.7848C11.408 16.3569 11.7063 16.9046 12.0046 17.4278C10.2589 18.3667 9.04613 17.9755 9.86277 16.665ZM19.105 9.30055C18.6649 9.07072 18.1954 8.85556 17.7113 8.65506C18.0536 8.13672 18.3812 7.60859 18.6893 7.07069C20.3715 8.10738 20.6649 9.35434 19.105 9.30055ZM12.5425 17.11C12.3078 16.6209 12.0682 16.0977 11.8335 15.5451C13.6917 15.5989 14.5181 14.7383 14.5523 14.6698C14.5523 14.6747 13.4765 15.3398 11.8628 15.1979C13.1782 14.0977 14.4007 12.8898 15.5206 11.5891C15.8971 11.149 16.2541 10.704 16.5915 10.2541C16.5768 10.2394 16.523 10.127 15.8824 9.74065C13.6623 12.3324 11.4863 13.951 10.1757 14.7236C9.29064 14.2444 8.42021 13.3593 7.77961 12.083C6.91896 10.3666 6.48864 8.54259 6.42507 7.09514C6.95319 7.13426 7.51066 7.18805 8.09257 7.2614C7.13413 8.84089 7.47643 9.97049 7.51555 10.0243C7.51555 10.0194 7.47643 8.77243 8.38109 7.46189C8.7674 9.7162 9.41289 11.9216 10.3029 14.0292C10.342 14.0146 10.3811 14.0683 11.1048 13.6723C9.97524 10.4693 9.6525 7.73574 9.64272 6.21982C10.5034 5.68681 11.7112 5.36895 13.1489 5.45208C15.0658 5.56456 16.8604 6.10735 18.1465 6.7724C17.8384 7.22228 17.5059 7.68684 17.144 8.16606C16.2541 6.54256 15.1147 6.2785 15.0462 6.28828C15.0511 6.28828 16.1611 6.89465 16.8311 8.31765C15.2174 7.72596 13.5596 7.27118 11.8726 6.95333C11.3102 6.85064 10.7479 6.76262 10.1806 6.69416C10.1757 6.71372 10.1024 6.7724 10.0877 7.56947C13.4325 8.19051 15.9607 9.28588 17.2761 10.0292C17.3103 11.0414 16.9778 12.2492 16.1856 13.4473C15.1293 15.0415 13.7601 16.3275 12.5425 17.11ZM13.721 4.77726C11.8041 4.70391 10.5572 5.09511 9.6525 5.66725C9.74052 3.41783 10.5669 2.38603 11.2956 2.43004C12.0193 2.24421 13.6526 4.66968 13.721 4.77726ZM8.10235 4.90929C8.12191 5.42763 8.17081 5.96554 8.23928 6.51322C7.61335 6.47899 7.00209 6.45943 6.41529 6.45943C6.4104 6.59636 6.4104 4.26869 7.47643 4.32737H7.48132C7.73071 4.37138 7.94098 4.62078 8.10235 4.90929ZM6.8994 11.8727C7.78939 13.5793 8.76251 14.4742 9.7014 14.9828C7.69159 16.0488 6.37128 15.8434 6.05343 15.1784C6.04365 15.1637 5.5742 14.5133 6.8994 11.8727Z" fill="#F8FAFC"/>
</svg>
