<svg width="27" height="20" viewBox="0 0 27 20" fill="none" xmlns="http://www.w3.org/2000/svg">
<path d="M26.2175 15.3065C25.7106 15.9462 24.47 16.4013 24.47 16.4013L15.2449 19.715V17.271L22.0342 14.853C22.8051 14.5777 22.9233 14.1858 22.2965 13.9817C21.6714 13.776 20.5393 13.8359 19.77 14.1113L15.2449 15.7049V13.1687L15.5057 13.0812C15.5057 13.0812 16.8127 12.618 18.6509 12.414C20.4891 12.2115 22.7403 12.4415 24.5072 13.1104C26.4993 13.742 26.7228 14.6684 26.2175 15.3065V15.3065ZM16.1227 11.1475V4.89594C16.1227 4.16228 15.9883 3.48692 15.3 3.29581C14.772 3.12576 14.4449 3.61649 14.4449 4.34853V20L10.2243 18.6606V0C12.0188 0.33363 14.6327 1.12074 16.0385 1.59527C19.6129 2.82128 20.8243 4.34853 20.8243 7.7901C20.8243 11.1442 18.7545 12.4156 16.1227 11.1458V11.1475ZM2.47954 17.0184C0.435647 16.4386 0.0955381 15.2401 1.02679 14.5502C1.8884 13.9121 3.35248 13.4327 3.35248 13.4327L9.40479 11.2786V13.7323L5.04817 15.2919C4.28049 15.5673 4.16226 15.9576 4.78742 16.1633C5.41257 16.3673 6.54464 16.309 7.31394 16.0337L9.40317 15.2741V17.4702L8.98695 17.5399C6.80736 17.8928 4.57476 17.7133 2.47954 17.0168V17.0184Z" fill="#F8FAFC"/>
</svg>
