<svg width="15" height="15" viewBox="0 0 15 15" fill="none" xmlns="http://www.w3.org/2000/svg">
<path d="M10.5312 0H4.46807C3.28336 0.00139224 2.14758 0.472684 1.30994 1.31047C0.472294 2.14826 0.00119304 3.28411 0 4.46882L0 10.5319C0.00139224 11.7166 0.472684 12.8524 1.31047 13.6901C2.14826 14.5277 3.28411 14.9988 4.46882 15H10.5319C11.7166 14.9986 12.8524 14.5273 13.6901 13.6895C14.5277 12.8517 14.9988 11.7159 15 10.5312V4.46807C14.9986 3.28336 14.5273 2.14758 13.6895 1.30994C12.8517 0.472294 11.7159 0.00119304 10.5312 0V0ZM13.4914 10.5312C13.4914 10.9199 13.4148 11.3048 13.266 11.664C13.1173 12.0231 12.8992 12.3495 12.6243 12.6243C12.3495 12.8992 12.0231 13.1173 11.664 13.266C11.3048 13.4148 10.9199 13.4914 10.5312 13.4914H4.46807C3.68311 13.4912 2.93037 13.1792 2.37539 12.6241C1.82041 12.069 1.50864 11.3161 1.50864 10.5312V4.46807C1.50884 3.68311 1.8208 2.93037 2.37592 2.37539C2.93104 1.82041 3.68386 1.50864 4.46882 1.50864H10.5319C11.3169 1.50884 12.0696 1.8208 12.6246 2.37592C13.1796 2.93104 13.4914 3.68386 13.4914 4.46882V10.5319V10.5312Z" fill="#F8FAFC"/>
<path d="M7.49956 3.62085C6.47134 3.62244 5.48569 4.03166 4.75869 4.7588C4.03169 5.48593 3.62267 6.47166 3.62128 7.49989C3.62247 8.52838 4.03151 9.51441 4.75869 10.2417C5.48587 10.9691 6.47183 11.3783 7.50031 11.3797C8.52893 11.3785 9.51508 10.9693 10.2424 10.242C10.9698 9.51465 11.3789 8.52851 11.3801 7.49989C11.3785 6.4714 10.9691 5.48553 10.2416 4.75849C9.51416 4.03145 8.52805 3.62259 7.49956 3.6216V3.62085ZM7.49956 9.87104C6.8709 9.87104 6.26797 9.6213 5.82344 9.17676C5.3789 8.73223 5.12917 8.12931 5.12917 7.50064C5.12917 6.87197 5.3789 6.26905 5.82344 5.82451C6.26797 5.37998 6.8709 5.13024 7.49956 5.13024C8.12823 5.13024 8.73115 5.37998 9.17569 5.82451C9.62022 6.26905 9.86996 6.87197 9.86996 7.50064C9.86996 8.12931 9.62022 8.73223 9.17569 9.17676C8.73115 9.6213 8.12823 9.87104 7.49956 9.87104V9.87104Z" fill="#F8FAFC"/>
<path d="M11.3873 4.57946C11.9006 4.57946 12.3167 4.16336 12.3167 3.65008C12.3167 3.1368 11.9006 2.7207 11.3873 2.7207C10.874 2.7207 10.4579 3.1368 10.4579 3.65008C10.4579 4.16336 10.874 4.57946 11.3873 4.57946Z" fill="#F8FAFC"/>
</svg>
