<svg width="21" height="20" viewBox="0 0 21 20" fill="none" xmlns="http://www.w3.org/2000/svg">
<path d="M12.3478 20H15.4109C18.2234 20 20.5347 17.6888 20.5347 14.8763V5.12375C20.5347 2.31125 18.2234 0 15.4109 0H12.2859C12.224 0 12.159 0.061875 12.159 0.12375V19.8763C12.159 19.9381 12.2209 20 12.3478 20ZM16.1597 9.00063C17.2859 9.00063 18.1584 9.93813 18.1584 10.9994C18.1584 12.1256 17.2209 12.9981 16.1597 12.9981C15.0334 12.9981 14.1609 12.1256 14.1609 10.9994C14.0959 9.87625 15.0334 9.00063 16.1597 9.00063ZM10.0334 0H5.65842C2.84592 0 0.534668 2.31125 0.534668 5.12375V14.8763C0.534668 17.6888 2.84592 20 5.65842 20H10.0334C10.0953 20 10.1603 19.9381 10.1603 19.8763V0.12375C10.1603 0.061875 10.0984 0 10.0334 0ZM8.59779 18.3756H5.65842C5.19867 18.3764 4.74329 18.2864 4.31839 18.1108C3.89349 17.9352 3.50743 17.6774 3.18233 17.3523C2.85724 17.0272 2.59951 16.6412 2.42391 16.2163C2.24831 15.7914 2.1583 15.336 2.15904 14.8763V5.12375C2.1583 4.664 2.24831 4.20862 2.42391 3.78372C2.59951 3.35882 2.85724 2.97276 3.18233 2.64767C3.50743 2.32257 3.89349 2.06484 4.31839 1.88924C4.74329 1.71364 5.19867 1.62363 5.65842 1.62437H8.53592L8.59779 18.3756ZM3.65967 5.99937C3.65967 7.06062 4.47342 7.87437 5.53467 7.87437C6.59592 7.87437 7.40967 7.06062 7.40967 5.99937C7.40967 4.93813 6.59592 4.12437 5.53467 4.12437C4.47342 4.12437 3.65967 4.93813 3.65967 5.99937Z" fill="#F8FAFC"/>
</svg>
