<svg width="21" height="20" viewBox="0 0 21 20" fill="none" xmlns="http://www.w3.org/2000/svg">
<path d="M4.96468 1.72C5.03468 1.66 5.10468 1.6 5.15468 1.56C6.71468 0.55 8.53468 0 10.5347 0C12.4147 0 14.1747 0.5 15.6747 1.42C15.7847 1.5 16.0747 1.69 16.2347 1.88C14.7847 0.28 10.5347 3.7 10.5347 3.7C9.03468 2.57 7.70468 1.8 6.69468 1.5C5.84468 1.29 5.26468 1.5 4.99468 1.7L4.96468 1.72ZM17.8747 3.21C17.8247 3.16 17.7747 3.11 17.7347 3.06C17.3747 2.66 16.9147 2.56 16.5347 2.59C16.1447 2.71 14.4347 3.32 12.3347 5.31C12.3347 5.31 14.7047 7.61 16.1547 9.96C17.6047 12.31 18.4647 14.16 17.9347 16.73C19.5347 14.95 20.5347 12.59 20.5347 10C20.5347 7.38 19.5347 5 17.8747 3.21ZM14.2647 10.96C13.6147 10.24 12.6647 9.21 11.3947 7.95C11.1247 7.68 10.8347 7.4 10.5347 7.1C10.5347 7.1 10.0647 7.56 9.46468 8.17C8.69468 8.94 7.70468 9.95 7.14468 10.54C6.16468 11.59 3.34468 14.89 3.18468 16.74C3.18468 16.74 2.53468 15.28 3.93468 11.89C4.83468 9.68 7.53468 6.36 8.68468 5.28C8.68468 5.28 7.65468 4.14 6.35468 3.35L6.30468 3.32C5.67468 2.95 4.99468 2.66 4.33468 2.62C3.66468 2.67 3.24468 3.16 3.24468 3.16C1.50096 5.01024 0.531333 7.45758 0.534677 10C0.534677 12.6522 1.58824 15.1957 3.46361 17.0711C4.39219 17.9997 5.49459 18.7362 6.70784 19.2388C7.9211 19.7413 9.22146 20 10.5347 20C13.4647 20 16.1047 18.74 17.9347 16.73C17.9347 16.73 17.7247 15.4 16.3747 13.5C16.0647 13.07 14.9047 11.69 14.2647 10.96Z" fill="#F8FAFC"/>
</svg>
