<svg width="198" height="26" viewBox="0 0 198 26" fill="none" xmlns="http://www.w3.org/2000/svg">
<path d="M65.9702 25.0959V0.756592H71.9444V25.0959H65.9702ZM70.2849 25.0959V20.3018H85.2942V25.0959H70.2849ZM70.2849 14.9914V10.6767H83.4134V14.9914H70.2849ZM70.2849 5.51383V0.756592H85.1835V5.51383H70.2849Z" fill="white"/>
<path d="M38.2224 25.0959V0.756592H46.3724L49.6914 19.0111H50.1339L53.4529 0.756592H61.6029V25.0959H56.44L56.7719 6.25138H56.2925L52.6048 25.0959H47.3312L43.6435 6.25138H43.2009L43.4959 25.0959H38.2224Z" fill="white"/>
<path d="M18.3435 25.0959L22.8426 0.756592H31.6564L36.1186 25.0959H29.9231L27.4154 5.18193H26.8992L24.2808 25.0959H18.3435ZM22.6213 21.0394V17.4254H32.1358V21.0394H22.6213Z" fill="white"/>
<path d="M7.00678 25.6123C5.3104 25.6123 3.94592 25.0468 2.91335 23.9159C1.88077 22.7604 1.13092 21.2361 0.6638 19.343C0.221267 17.4254 0 15.2865 0 12.9263C0 11.1316 0.135219 9.47207 0.405656 7.94779C0.676093 6.42351 1.14321 5.09591 1.80701 3.96499C2.47081 2.80949 3.36817 1.91213 4.49909 1.27291C5.6546 0.633695 7.11741 0.314087 8.88755 0.314087C10.5102 0.314087 11.8378 0.572232 12.8703 1.08852C13.9029 1.60481 14.6897 2.2932 15.2305 3.15368C15.7714 3.98957 16.1033 4.9361 16.2262 5.99327C16.3492 7.02585 16.3 8.08301 16.0787 9.16476L10.7683 9.68105C10.8912 8.77139 10.8789 7.9355 10.7314 7.17336C10.6085 6.41122 10.3627 5.80888 9.99388 5.36635C9.6251 4.89923 9.14569 4.66567 8.55565 4.66567C7.91643 4.66567 7.37556 4.9484 6.93303 5.51386C6.51508 6.07932 6.19547 6.95209 5.9742 8.13218C5.77752 9.31227 5.67918 10.8243 5.67918 12.6681C5.67918 14.3154 5.75294 15.6921 5.90045 16.7985C6.04796 17.9048 6.24464 18.7776 6.49049 19.4168C6.76093 20.056 7.06824 20.5108 7.41244 20.7813C7.78121 21.0517 8.16229 21.1869 8.55565 21.1869C9.09652 21.1869 9.55135 21.0148 9.92013 20.6706C10.3135 20.3264 10.6208 19.8101 10.8421 19.1218C11.0879 18.4334 11.2477 17.6344 11.3215 16.7247H8.51877V12.7419H16.3369V16.7985V25.096H13.0179V18.0154H12.4278C12.3786 19.5397 12.182 20.8796 11.8378 22.0351C11.5182 23.166 10.965 24.0511 10.1783 24.6903C9.41613 25.3049 8.35897 25.6123 7.00678 25.6123Z" fill="white"/>
<path d="M178.607 25.1698V0.830444H184.582V25.1698H178.607ZM182.922 25.1698V20.3757H197.931V25.1698H182.922ZM182.922 15.0653V10.7506H196.051V15.0653H182.922ZM182.922 5.58768V0.830444H197.821V5.58768H182.922Z" fill="url(#paint0_linear_230_3903)"/>
<path d="M149.472 25.1698V0.830444H157.18L167.616 17.1673H168.059L167.69 0.830444H173.48V25.1698H166.51L155.336 7.91098H154.93L155.262 25.1698H149.472Z" fill="url(#paint1_linear_230_3903)"/>
<path d="M133.482 25.686C131.712 25.686 130.114 25.4156 128.688 24.8747C127.262 24.3338 126.032 23.5348 125 22.4776C123.992 21.4205 123.217 20.1175 122.677 18.5686C122.136 16.9951 121.865 15.1758 121.865 13.1107C121.865 10.2096 122.369 7.82486 123.377 5.95639C124.41 4.06333 125.823 2.64968 127.618 1.71544C129.413 0.781205 131.441 0.314087 133.703 0.314087C135.449 0.314087 137.034 0.584524 138.46 1.1254C139.886 1.66627 141.103 2.46529 142.111 3.52246C143.144 4.57962 143.93 5.90722 144.471 7.50526C145.037 9.07871 145.32 10.898 145.32 12.9632C145.32 15.1021 145.024 16.9706 144.434 18.5686C143.869 20.142 143.058 21.4574 142.001 22.5145C140.968 23.5717 139.726 24.3707 138.276 24.9116C136.825 25.4279 135.227 25.686 133.482 25.686ZM133.666 21.0394C134.871 21.0394 135.879 20.7444 136.69 20.1543C137.526 19.5397 138.153 18.6669 138.571 17.536C139.013 16.3805 139.235 14.9792 139.235 13.3319C139.235 11.5864 139.013 10.1113 138.571 8.90661C138.128 7.67735 137.477 6.75541 136.616 6.14078C135.78 5.50156 134.748 5.18195 133.519 5.18195C132.339 5.18195 131.331 5.48927 130.495 6.1039C129.683 6.69394 129.056 7.57901 128.614 8.7591C128.171 9.9146 127.95 11.3405 127.95 13.0369C127.95 14.3154 128.073 15.4586 128.319 16.4666C128.589 17.45 128.958 18.2859 129.425 18.9742C129.892 19.638 130.482 20.1543 131.195 20.5231C131.933 20.8673 132.756 21.0394 133.666 21.0394Z" fill="url(#paint2_linear_230_3903)"/>
<path d="M100.535 25.1698V19.5644L112.41 6.2146V5.77207H100.904V0.830444H118.9V6.91528L107.431 19.8225V20.2282H119.38V25.1698H100.535Z" fill="url(#paint3_linear_230_3903)"/>
<defs>
<linearGradient id="paint0_linear_230_3903" x1="99.3181" y1="12.8262" x2="199.79" y2="12.8262" gradientUnits="userSpaceOnUse">
<stop stop-color="#96A9FD"/>
<stop offset="1" stop-color="#7CFCFB"/>
</linearGradient>
<linearGradient id="paint1_linear_230_3903" x1="99.318" y1="12.8262" x2="199.789" y2="12.8262" gradientUnits="userSpaceOnUse">
<stop stop-color="#96A9FD"/>
<stop offset="1" stop-color="#7CFCFB"/>
</linearGradient>
<linearGradient id="paint2_linear_230_3903" x1="99.3179" y1="12.8261" x2="199.789" y2="12.8261" gradientUnits="userSpaceOnUse">
<stop stop-color="#96A9FD"/>
<stop offset="1" stop-color="#7CFCFB"/>
</linearGradient>
<linearGradient id="paint3_linear_230_3903" x1="99.3182" y1="12.8262" x2="199.79" y2="12.8262" gradientUnits="userSpaceOnUse">
<stop stop-color="#96A9FD"/>
<stop offset="1" stop-color="#7CFCFB"/>
</linearGradient>
</defs>
</svg>
